<svg width="44" height="44" viewBox="0 0 44 44" fill="none" xmlns="http://www.w3.org/2000/svg">
<g clip-path="url(#clip0)">
<path d="M42 20C42 7.84844 32.1516 -2 20 -2C7.84844 -2 -2 7.84844 -2 20C-2 32.1516 7.84844 42 20 42C20.1289 42 20.2578 42 20.3867 41.9914V24.8727H15.6602V19.3641H20.3867V15.3078C20.3867 10.607 23.257 8.04609 27.4508 8.04609C29.4617 8.04609 31.1891 8.19219 31.6875 8.26094V13.1766H28.8C26.5227 13.1766 26.0758 14.2594 26.0758 15.8492V19.3555H31.5328L30.8195 24.8641H26.0758V41.1492C35.2711 38.5109 42 30.0461 42 20Z" fill="black"/>
</g>
<defs>
<clipPath id="clip0">
<rect width="44" height="44" rx="22" fill="white"/>
</clipPath>
</defs>
</svg>
