<svg width="476" height="407" viewBox="0 0 476 407" fill="none" xmlns="http://www.w3.org/2000/svg">
<path opacity="0.45" d="M250.9 378.957C357.211 378.957 443.394 364.325 443.394 346.275C443.394 328.226 357.211 313.593 250.9 313.593C144.588 313.593 58.4052 328.226 58.4052 346.275C58.4052 364.325 144.588 378.957 250.9 378.957Z" fill="#E6E6E6"/>
<path d="M99.8058 123.753L68.8668 124.036L70.4402 347.458L101.379 347.175L99.8058 123.753Z" fill="#FFD200"/>
<path d="M68.8772 124.027L83.9783 72.2969L99.8172 123.742L68.8772 124.027Z" fill="#F4A28C"/>
<path d="M77.112 95.8079L91.1778 95.6858L83.9783 72.2969L77.112 95.8079Z" fill="#24285B"/>
<path opacity="0.08" d="M84.9555 123.889L68.9506 124.036L70.524 347.458L86.529 347.311L84.9555 123.889Z" fill="black"/>
<path d="M408.622 323.524H350.907V340.849H408.622V323.524Z" fill="#E6E6E6"/>
<path opacity="0.43" d="M396.008 306.58H338.293V323.904H396.008V306.58Z" fill="#E6E6E6"/>
<path opacity="0.08" d="M69.7459 237.892V260.249C69.7459 260.249 86.5606 262.393 100.686 251.947V231.854L88.536 229.141L69.7459 237.892Z" fill="black"/>
<path d="M373.47 85.918H182.272V340.971H373.47V85.918Z" fill="#C9C9C9"/>
<path opacity="0.08" d="M361.808 120.295H212.962V324.487H361.808V120.295Z" fill="black"/>
<path d="M352.288 108.533H203.442V312.725H352.288V108.533Z" fill="white"/>
<path opacity="0.08" d="M188.02 142.002C188.02 142.002 216.83 145.163 223.97 187.898L247.103 152.625C247.103 152.625 260.562 150.767 254.612 164.835C250.709 174.088 249.757 200.733 239.499 218.763C219.158 254.467 205.532 294.591 199.48 336.603L198.98 340.13L184.997 340.849L188.865 210.514L188.02 142.002Z" fill="black"/>
<path d="M241.76 60.6021H229.194V120.295H241.76V60.6021Z" fill="#F2F2F2"/>
<path d="M326.762 60.6021H314.196V120.295H326.762V60.6021Z" fill="#F2F2F2"/>
<path d="M334.592 139.737H302.855V175.919H334.592V139.737Z" fill="#FFD200"/>
<path d="M334.592 192.538H302.855V228.72H334.592V192.538Z" fill="#FFD200"/>
<path d="M334.592 245.353H302.855V281.535H334.592V245.353Z" fill="#FFD200"/>
<path d="M131.031 158.215C122.57 179.08 97.2825 219.78 72.8518 224.474V239.099C72.8518 239.099 116.62 236.508 155.14 192.647C171.17 174.359 170.896 161.728 165.124 153.208C155.973 139.737 137.29 142.762 131.031 158.215Z" fill="#6173EF"/>
<path opacity="0.08" d="M131.031 158.215C122.57 179.08 97.2825 219.78 72.8518 224.474V239.099C72.8518 239.099 116.62 236.508 155.14 192.647C171.17 174.359 170.896 161.728 165.124 153.208C155.973 139.737 137.29 142.762 131.031 158.215Z" fill="black"/>
<path d="M287.385 150.142H230.265V165.513H287.385V150.142Z" fill="#A5A5A5"/>
<path opacity="0.44" d="M287.385 202.944H230.265V218.315H287.385V202.944Z" fill="#A5A5A5"/>
<path opacity="0.13" d="M287.385 255.745H230.265V271.116H287.385V255.745Z" fill="#A5A5A5"/>
<path d="M309.995 157.821L316.338 167.1L327.048 150.142" stroke="white" stroke-width="3" stroke-miterlimit="10"/>
<path d="M309.995 209.835L316.338 219.115L327.048 202.157" stroke="white" stroke-width="3" stroke-miterlimit="10"/>
<path d="M309.995 261.85L316.338 271.13L327.048 254.171" stroke="white" stroke-width="3" stroke-miterlimit="10"/>
<path d="M151.297 124.135L155.854 139.709L145.037 147.551L141.146 120.553L151.297 124.135Z" fill="#F4A28C"/>
<path d="M144.49 104.572C145.502 103.438 146.746 102.611 148.109 102.166C149.473 101.72 150.913 101.671 152.297 102.021C153.682 102.372 154.968 103.111 156.038 104.173C157.108 105.234 157.929 106.584 158.425 108.099C160.805 115.262 163.054 125.885 155.64 127.703C144.287 130.416 140.682 113.838 140.682 113.838C141.124 110.389 142.449 107.166 144.49 104.572Z" fill="#F4A28C"/>
<path d="M144.454 115.045C144.454 115.045 141.991 112.698 140.884 116.036C139.777 119.373 144.109 120.974 145.406 119.292C146.703 117.609 144.454 115.045 144.454 115.045Z" fill="#F4A28C"/>
<path d="M132.411 155.189C134.046 151.062 136.44 147.385 139.432 144.408C142.424 141.43 145.943 139.221 149.75 137.932C164.446 132.899 191.495 138.407 199.73 154.076C211.023 175.525 194.494 243.616 194.494 243.616L145.18 248.039C145.18 248.039 117.965 192.185 132.411 155.189Z" fill="#6173EF"/>
<path d="M194.505 243.671L188.008 340.442H177.738L168.575 265.255L145.87 248.039L194.505 243.671Z" fill="#24285B"/>
<path d="M145.87 248.04L131.709 340.442H142.717L166.493 263.682L145.87 248.04Z" fill="#24285B"/>
<path opacity="0.08" d="M154.022 136.467C154.022 136.467 130.9 221.272 197.611 226.889L194.506 243.671L145.18 248.039C145.18 248.039 125.902 209.727 128.52 173.151C128.52 173.151 128.937 151.512 142.288 141.948C145.813 139.19 149.813 137.321 154.022 136.467Z" fill="black"/>
<path d="M134.291 340.252L127.651 345.814C127.403 346.023 127.219 346.315 127.125 346.65C127.032 346.985 127.033 347.345 127.129 347.679C127.226 348.012 127.412 348.303 127.662 348.509C127.911 348.715 128.212 348.826 128.52 348.826H139.635C140.021 348.822 140.39 348.645 140.662 348.333C140.934 348.02 141.086 347.598 141.086 347.157V340.252H134.291Z" fill="#6173EF"/>
<path d="M186.723 340.252L192.97 345.814C193.214 346.03 193.393 346.327 193.481 346.665C193.569 347.002 193.562 347.363 193.46 347.695C193.359 348.028 193.169 348.316 192.917 348.519C192.665 348.721 192.363 348.829 192.054 348.826H184.152C183.598 348.826 183.048 348.701 182.536 348.459C182.023 348.217 181.558 347.863 181.165 347.415C180.773 346.968 180.462 346.437 180.25 345.853C180.037 345.269 179.928 344.642 179.928 344.01V340.252H186.723Z" fill="#6173EF"/>
<path d="M174.157 137.484C171.694 141.988 170.389 147.189 170.389 152.496C170.389 157.803 171.694 163.004 174.157 167.507C179.535 177.872 195.16 198.073 205.87 211.382C207.079 212.902 208.589 214.07 210.274 214.79C211.959 215.51 213.771 215.76 215.558 215.52C217.345 215.279 219.056 214.556 220.549 213.409C222.041 212.262 223.271 210.725 224.136 208.926L247.151 162.691L239.345 156.98L218.258 192.253C218.258 192.253 203.823 138.163 174.157 137.484Z" fill="#6173EF"/>
<path opacity="0.2" d="M174.157 137.484C171.694 141.988 170.389 147.189 170.389 152.496C170.389 157.803 171.694 163.004 174.157 167.507C179.535 177.872 195.16 198.073 205.87 211.382C207.079 212.902 208.589 214.07 210.274 214.79C211.959 215.51 213.771 215.76 215.558 215.52C217.345 215.279 219.056 214.556 220.549 213.409C222.041 212.262 223.271 210.725 224.136 208.926L247.151 162.691L239.345 156.98L218.258 192.253C218.258 192.253 203.823 138.163 174.157 137.484Z" fill="white"/>
<path d="M244.426 160.724C244.426 160.724 257.516 155.297 252.161 146.832C246.806 138.366 239.345 157.007 239.345 157.007L244.426 160.724Z" fill="#F4A28C"/>
<path d="M142.003 125.003L138.04 113.879C137.63 112.723 137.434 111.483 137.463 110.237C137.491 108.99 137.744 107.764 138.207 106.634C139.813 102.646 142.883 96.4999 147.572 93.0675C154.926 87.5594 162.126 87.5323 161.316 94.8448C160.507 102.157 163.601 94.4649 166.076 99.7016C168.552 104.938 167.064 106.634 163.435 107.123C159.805 107.611 152.725 107.462 150.178 112.793C147.631 118.125 150.725 124.678 142.003 125.003Z" fill="#24285B"/>
<path d="M72.8518 224.474C72.8518 224.474 66.0331 221.164 63.4508 228.395C60.8685 235.626 72.8518 239.099 72.8518 239.099V224.474Z" fill="#F4A28C"/>
<path d="M101.226 308.586L69.9185 308.872L70.2009 348.974L101.509 348.687L101.226 308.586Z" fill="#24285B"/>
</svg>
