<svg width="20" height="20" viewBox="0 0 20 20" fill="none" xmlns="http://www.w3.org/2000/svg">
<g clip-path="url(#clip0)">
<path d="M9.99991 9.78131C7.77625 9.78131 5.97345 7.59171 5.97345 4.89069C5.97345 2.1896 6.56534 0 9.99991 0C13.4345 0 14.0265 2.1896 14.0265 4.89069C14.0265 7.59171 12.2237 9.78131 9.99991 9.78131Z" fill="#536DFE"/>
<path d="M17.6049 17.2487C17.6058 17.084 17.6067 17.2023 17.6049 17.2487V17.2487Z" fill="#536DFE"/>
<path d="M2.39514 17.3776C2.39221 17.3325 2.39414 17.0648 2.39514 17.3776V17.3776Z" fill="#536DFE"/>
<path d="M2.40344 17.0514C2.47801 12.3462 3.09252 11.0054 7.79498 10.1567C7.79498 10.1567 8.45692 11.0002 9.99978 11.0002C11.5426 11.0002 12.2047 10.1567 12.2047 10.1567C16.8558 10.9962 17.5077 12.317 17.5934 16.8986C17.6005 17.2727 17.6037 17.2923 17.605 17.2489C17.6047 17.3303 17.6044 17.4808 17.6044 17.7433C17.6044 17.7433 16.4848 20.0002 9.99978 20.0002C3.51487 20.0002 2.39521 17.7433 2.39521 17.7433C2.39521 17.5746 2.39509 17.4574 2.39492 17.3776C2.39618 17.4045 2.39869 17.3524 2.40344 17.0514Z" fill="#536DFE"/>
</g>
<defs>
<clipPath id="clip0">
<rect width="20" height="20" fill="white" transform="matrix(-1 0 0 1 20 0)"/>
</clipPath>
</defs>
</svg>
