<svg width="1100" height="181" viewBox="0 0 1100 181" fill="none" xmlns="http://www.w3.org/2000/svg">
<path d="M-8 103.332L38.1667 81.7774C84.3333 60.5459 176.667 16.9529 269 17.195C361.333 16.9529 453.667 60.5459 546 81.7774C638.333 103.332 730.667 103.332 823 86.1367C915.333 68.6187 1007.67 34.713 1053.83 17.195L1100 0V180.831H1053.83C1007.67 180.831 915.333 180.831 823 180.831C730.667 180.831 638.333 180.831 546 180.831C453.667 180.831 361.333 180.831 269 180.831C176.667 180.831 84.3333 180.831 38.1667 180.831H-8V103.332Z" fill="white"/>
</svg>
